<?xml version="1.0" encoding="UTF-8" standalone="no"?>
<!-- Created with Inkscape (http://www.inkscape.org/) -->

<svg
   xmlns:dc="http://purl.org/dc/elements/1.1/"
   xmlns:cc="http://creativecommons.org/ns#"
   xmlns:rdf="http://www.w3.org/1999/02/22-rdf-syntax-ns#"
   xmlns:svg="http://www.w3.org/2000/svg"
   xmlns="http://www.w3.org/2000/svg"
   xmlns:sodipodi="http://sodipodi.sourceforge.net/DTD/sodipodi-0.dtd"
   xmlns:inkscape="http://www.inkscape.org/namespaces/inkscape"
   id="svg4136"
   version="1.1"
   inkscape:version="0.91 r13725"
   width="248.75"
   height="248.75"
   viewBox="0 0 248.75 248.75"
   sodipodi:docname="favicon.svg">
  <metadata
     id="metadata4142">
    <rdf:RDF>
      <cc:Work
         rdf:about="">
        <dc:format>image/svg+xml</dc:format>
        <dc:type
           rdf:resource="http://purl.org/dc/dcmitype/StillImage" />
        <dc:title></dc:title>
      </cc:Work>
    </rdf:RDF>
  </metadata>
  <defs
     id="defs4140" />
  <sodipodi:namedview
     pagecolor="#ffffff"
     bordercolor="#666666"
     borderopacity="1"
     objecttolerance="10"
     gridtolerance="10"
     guidetolerance="10"
     inkscape:pageopacity="0"
     inkscape:pageshadow="2"
     inkscape:window-width="1440"
     inkscape:window-height="801"
     id="namedview4138"
     showgrid="false"
     inkscape:zoom="0.65326633"
     inkscape:cx="-257.55192"
     inkscape:cy="338.68269"
     inkscape:window-x="0"
     inkscape:window-y="0"
     inkscape:window-maximized="0"
     inkscape:current-layer="svg4136" />
  <g
     id="g4157"
     transform="translate(70.415381,-36.738462)">
    <path
       style="fill:#a1a1a1"
       d="m 36.471153,206.54855 c -0.401395,-0.0873 -2.700289,-0.40305 -5.108654,-0.70169 -8.183708,-1.0148 -22.1339279,-5.06862 -23.3123775,-6.77439 -0.6388152,-0.92468 0.5843911,-2.1787 3.0138185,-3.08973 2.240344,-0.84013 8.612582,-2.13323 11.405045,-2.31439 3.175427,-0.20602 10.225836,-2.94995 10.953664,-4.26303 0.330807,-0.59682 0.604694,-2.42479 0.60864,-4.06216 l 0.0072,-2.97703 -3.364185,-1.98704 c -7.831323,-4.62553 -15.236637,-13.28344 -18.844855,-22.03244 -0.853768,-2.07016 -1.734296,-3.81878 -1.9567265,-3.88581 -0.9918329,-0.29888 -5.384302,11.09354 -6.2558967,16.22545 -0.246169,1.44945 -0.5193944,1.87919 -1.1289589,1.77566 -0.5616892,-0.0954 -1.1352596,-1.27481 -1.90213178,-3.91129 C -0.88084624,163.50873 -0.666492,155.41829 1.1564994,147.00674 2.7894246,139.47217 3.6844121,133.31524 4.6112386,123.24039 5.813154,110.17528 7.3751662,102.52186 10.549761,94.143273 14.858468,82.771472 22.415344,73.550109 30.347736,69.98458 c 3.691712,-1.659387 10.297931,-3.156481 13.908032,-3.151821 8.799106,0.01136 17.899861,4.703933 19.624995,10.119136 0.650156,2.040841 0.729219,2.103761 3.534921,2.813144 4.267316,1.078932 9.246974,2.885269 12.184781,4.419953 7.343675,3.836266 14.066653,12.24005 16.692428,20.865688 2.775868,9.11868 2.026355,23.53409 -1.794762,34.51894 l -1.276156,3.66866 1.243986,1.21788 c 1.902365,1.86245 2.336377,2.93147 2.331205,5.74205 -0.0081,4.41917 -4.099252,10.92728 -7.808343,12.42143 -1.409566,0.56782 -2.469529,1.53506 -3.939132,3.59455 -4.451419,6.23819 -14.736909,13.69011 -22.827917,16.53901 -2.103749,0.74074 -4.02758,1.34681 -4.275179,1.34681 -0.2476,0 -0.586917,0.32533 -0.754033,0.72297 -0.43227,1.02853 0.212564,4.95295 0.899342,5.47337 1.265574,0.959 9.598625,3.57673 11.385841,3.57673 1.047644,0 3.519002,0.32759 5.491896,0.72796 5.400708,1.09602 8.679914,2.84207 8.068729,4.29629 -0.248164,0.59047 -8.524076,3.67922 -13.326809,4.97385 -6.489187,1.74923 -13.020085,2.51659 -22.779832,2.67657 -5.351923,0.0877 -10.059182,0.0881 -10.460576,8.9e-4 z m 5.142468,-63.06053 c 0.779955,-2.83734 -0.589208,-3.61713 -2.04679,-1.16571 -1.142032,1.92072 -1.052645,2.24116 0.625178,2.24116 0.785477,0 1.215388,-0.32523 1.421612,-1.07545 z M 25.280769,139.0395 c 0,-0.83924 0.213522,-2.03866 0.474496,-2.66538 0.422306,-1.01417 0.353947,-1.1395 -0.621548,-1.1395 -0.602826,0 -1.582651,0.31119 -2.177381,0.69153 -1.936739,1.23859 -1.11194,4.63924 1.125203,4.63924 1.041859,0 1.19923,-0.20024 1.19923,-1.52589 z m 6.760359,-1.3053 c 0.816382,-0.89815 0.122466,-2.05535 -1.23249,-2.05535 -1.388517,0 -1.996909,1.06623 -1.143881,2.00469 0.750126,0.82526 1.654756,0.84454 2.376371,0.0507 z"
       id="path4171"
       inkscape:connector-curvature="0" />
    <path
       style="fill:#915b35"
       d="m 40.606729,206.10122 c -0.267596,-0.0771 -3.332788,-0.38212 -6.811538,-0.67784 -6.787065,-0.57696 -13.022848,-1.99225 -20.751326,-4.7098 -2.501771,-0.87969 -4.6407598,-1.67999 -4.7533156,-1.77845 -0.4891999,-0.42793 2.2456616,-2.44817 3.8245426,-2.8252 4.526953,-1.08099 8.392005,-1.79262 9.736325,-1.79262 1.719787,0 6.579357,-1.44972 9.813042,-2.92745 2.585558,-1.18155 2.84447,-1.74649 2.853899,-6.22719 l 0.0067,-3.15754 -3.004657,-1.69331 c -8.089441,-4.5589 -15.937374,-13.8961 -19.815557,-23.57587 -0.694894,-1.73441 -1.482381,-3.20803 -1.7499771,-3.2747 -0.2675961,-0.0667 -1.3960782,1.75219 -2.5077359,4.04194 -1.7424547,3.58902 -2.6414707,6.20337 -4.4868283,13.04778 -0.3413213,1.26595 -0.3866569,1.28703 -0.9053215,0.42083 -0.3003061,-0.50153 -0.9199566,-2.59688 -1.37700112,-4.65635 -1.07807675,-4.85787 -0.74871455,-10.22805 1.22511352,-19.97506 1.7397593,-8.59115 2.190834,-11.74161 3.1802099,-22.21154 2.145362,-22.70308 6.4983675,-35.697878 15.3583255,-45.848439 5.756518,-6.595052 12.653016,-9.977635 22.072425,-10.826046 8.129629,-0.73224 18.069045,3.545555 20.444428,8.799016 0.471903,1.043671 1.012433,2.181028 1.201175,2.52746 0.188748,0.346431 2.542592,1.278246 5.230761,2.0707 10.689614,3.151219 15.659332,6.417177 21.098642,13.86543 2.813666,3.852867 4.957004,8.718329 6.090396,13.825469 1.747612,7.87481 0.26023,23.92546 -2.961954,31.96305 l -1.181583,2.9474 1.434578,1.11058 c 1.733722,1.34216 2.444943,2.96103 2.444943,5.56514 0,4.23708 -3.84267,10.28064 -7.656723,12.04213 -1.505516,0.69531 -2.70639,1.8392 -4.497094,4.28372 -4.895735,6.68324 -14.725189,13.43361 -24.093297,16.54607 -1.33798,0.44453 -2.70637,0.99819 -3.040865,1.23036 -0.732216,0.50823 -0.781979,2.61169 -0.113757,4.80816 0.42104,1.38398 0.877005,1.76412 3.281419,2.73575 4.362596,1.76295 7.514061,2.6481 9.277563,2.60579 4.277291,-0.10263 13.557827,2.78645 13.08767,4.07427 -0.379607,1.0398 -14.482069,5.56161 -19.08626,6.11981 -13.34305,1.61768 -20.818849,2.11674 -22.867307,1.52655 z m 0.945491,-61.6366 c 0.964538,-1.25733 0.969004,-3.04092 0.01036,-4.1475 -0.728046,-0.84041 -0.762021,-0.84117 -1.337981,-0.0298 -0.325032,0.4579 -1.067723,1.49493 -1.650436,2.30452 -1.084027,1.5061 -0.941909,1.94894 0.816203,2.54322 1.207754,0.40825 1.373819,0.35675 2.161836,-0.67047 z m -15.635171,-5.00576 c -0.158266,-0.89045 0.02978,-2.0179 0.471417,-2.82617 0.877603,-1.60622 0.694091,-1.8423 -1.432058,-1.8423 -2.103087,0 -3.570268,1.32715 -3.560498,3.22067 0.0097,1.87563 0.489891,2.51258 2.223442,2.94919 2.096606,0.52805 2.599939,0.19916 2.297697,-1.50139 z m 6.383774,-1.36847 c 1.54888,-1.4142 0.385226,-3.02691 -2.003614,-2.77681 -1.68299,0.1762 -2.202969,1.98079 -0.834078,2.89471 1.144153,0.76387 1.906632,0.7322 2.837692,-0.1179 z"
       id="path4169"
       inkscape:connector-curvature="0" />
    <path
       style="fill:#685855"
       d="m 34.038461,204.06017 c -2.80976,-0.71202 -5.272861,-1.29636 -5.473558,-1.29853 -0.200697,-0.002 -0.364904,0.49582 -0.364904,1.10664 0,0.61081 -0.131535,1.11057 -0.292302,1.11057 -1.503341,0 -18.7998166,-5.32876 -19.6171476,-6.04372 -0.4891999,-0.42793 2.2456616,-2.44817 3.8245426,-2.8252 4.526953,-1.08099 8.392005,-1.79262 9.736325,-1.79262 1.719787,0 6.579357,-1.44972 9.813042,-2.92745 2.585558,-1.18155 2.84447,-1.74649 2.853899,-6.22719 l 0.0066,-3.15754 -3.004657,-1.69331 c -8.154647,-4.59565 -15.935039,-13.8891 -19.886738,-23.75412 -0.734036,-1.83245 -1.521528,-3.30607 -1.7499721,-3.27471 -0.2284493,0.0314 -1.3249026,1.93045 -2.4365602,4.2202 -1.7424547,3.58902 -2.6414707,6.20337 -4.4868283,13.04778 -0.3413213,1.26595 -0.386657,1.28703 -0.9053216,0.42083 -0.3003061,-0.50153 -0.9199566,-2.59688 -1.37700105,-4.65635 -1.07807674,-4.85787 -0.74871455,-10.22805 1.22511355,-19.97506 1.7397593,-8.59115 2.1908339,-11.74161 3.1802099,-22.21154 2.145362,-22.70308 6.4983678,-35.697878 15.3583258,-45.848439 5.756518,-6.595052 12.653016,-9.977635 22.072424,-10.826046 8.129629,-0.73224 18.069045,3.545555 20.444428,8.799016 0.471904,1.043671 1.012433,2.181028 1.201176,2.52746 0.188748,0.346431 2.542592,1.278246 5.23076,2.0707 10.689615,3.151219 15.659333,6.417177 21.098643,13.86543 2.813666,3.852867 4.957004,8.718329 6.090395,13.825469 1.747612,7.87481 0.26023,23.92546 -2.961953,31.96305 l -1.181583,2.9474 1.434578,1.11058 c 1.733721,1.34216 2.444943,2.96103 2.444943,5.56514 0,4.23708 -3.842671,10.28064 -7.656723,12.04213 -1.505516,0.69531 -2.70639,1.8392 -4.497095,4.28372 -4.895734,6.68324 -14.725188,13.43361 -24.093296,16.54607 -1.337981,0.44453 -2.70637,0.99819 -3.040865,1.23036 -0.732216,0.50823 -0.781979,2.61169 -0.113758,4.80816 0.421041,1.38398 0.877005,1.76412 3.28142,2.73575 4.362596,1.76295 7.514061,2.6481 9.277563,2.60579 4.290199,-0.10294 13.557574,2.78714 13.085315,4.08072 -0.09882,0.27067 -1.477398,0.95988 -3.063518,1.53157 -3.322279,1.19748 -13.91229,4.5337 -14.40635,4.53851 -0.182666,0.002 -0.478837,-0.41884 -0.65816,-0.93471 -0.283501,-0.81556 -0.577083,-0.90128 -2.250075,-0.65702 -1.058221,0.15449 -3.796995,0.77647 -6.086172,1.38217 -5.089144,1.34653 -8.583346,1.48221 -8.3405,0.32385 0.119703,-0.57098 1.25958,-1.0286 4.292884,-1.72344 2.271449,-0.52033 5.434824,-1.26997 7.029726,-1.66587 1.594898,-0.39591 3.833437,-0.71983 4.974525,-0.71983 1.805379,0 2.171071,-0.17014 2.817009,-1.31063 1.059968,-1.87151 0.975733,-2.04023 -1.325486,-2.65489 -3.810891,-1.01789 -10.989128,-4.08889 -11.302979,-4.83565 -0.170785,-0.40636 -0.438551,-1.9907 -0.595037,-3.52076 l -0.284523,-2.78191 -4.91666,-0.005 c -2.72031,-0.003 -6.09458,-0.2915 -7.553495,-0.64601 -1.450254,-0.35241 -2.818644,-0.53814 -3.040865,-0.41274 -0.222222,0.12539 -0.405258,1.26569 -0.406751,2.53399 -0.0015,1.26829 -0.224655,3.03555 -0.495914,3.92725 -0.459195,1.50946 -0.802881,1.74354 -4.984309,3.39478 -2.470102,0.97544 -5.309439,2.00973 -6.309625,2.29841 l -1.818525,0.52488 0.7917,1.41111 c 0.981367,1.74915 1.486817,2.06282 3.331888,2.06769 0.802788,0.002 3.430096,0.49937 5.838461,1.10499 2.408366,0.60563 5.580737,1.35659 7.049714,1.66882 1.844374,0.39201 2.721122,0.80824 2.833269,1.34508 0.248582,1.18992 -3.542195,0.95967 -9.639713,-0.58551 z M 56.801385,180.9608 c 10.239401,-2.49812 22.073982,-10.78664 26.579746,-18.61551 1.790491,-3.11103 3.69002,-8.87106 3.69002,-11.18942 0,-1.19396 -0.114293,-1.26163 -2.13063,-1.26163 -1.227172,0 -3.238672,-0.46205 -4.74375,-1.08964 -5.949659,-2.48094 -13.065104,-3.13352 -19.370579,-1.77654 -5.482233,1.17982 -5.800959,0.19374 -1.161061,-3.59211 1.785246,-1.45664 3.610003,-2.9483 4.055016,-3.31479 1.280224,-1.05433 2.826238,-1.77692 3.801772,-1.77692 0.494226,0 1.047289,-0.13577 1.22903,-0.30171 0.622434,-0.56831 4.275131,-0.63751 7.040689,-0.13339 4.526223,0.82507 8.360282,3.69555 8.360282,6.25917 0,0.94407 2.81569,3.1714 3.512253,2.77834 0.896593,-0.50594 0.142848,-14.49259 -0.990261,-18.37549 -1.856398,-6.36146 -2.983629,-8.48873 -5.91768,-11.16764 -6.202567,-5.66322 -19.838079,-9.82098 -32.364887,-9.86875 -7.094446,-0.0271 -10.549229,0.62173 -15.530327,2.91652 -3.569275,1.64437 -9.059662,6.57549 -11.432106,10.26761 -1.707609,2.65746 -4.700915,9.47108 -5.238083,11.92336 l -0.301965,1.37855 3.341575,-1.70622 c 5.663488,-2.89179 11.641123,-2.85673 17.812975,0.10446 8.165784,3.91787 11.19905,10.98989 6.037996,14.07749 -1.667202,0.9974 -2.055542,0.95568 -7.648029,-0.82167 -2.689312,-0.85469 -6.950513,-1.93837 -9.469337,-2.40819 -5.756782,-1.07377 -7.432639,-2.00993 -9.306775,-5.19892 l -1.474776,-2.50944 -0.522387,1.50402 c -1.961854,5.64841 -2.20291,13.00048 -0.574305,17.51598 5.095731,14.12852 17.993836,25.77208 30.413236,27.45506 2.571351,0.34845 8.650026,-0.18152 12.302348,-1.07258 z m -13.479104,-8.65109 c -3.663596,-0.92869 -5.525126,-2.08997 -8.045463,-5.019 -2.390155,-2.77774 -5.130665,-4.62296 -5.130665,-3.45454 0,0.86415 -0.687022,1.23426 -1.658979,0.89371 -0.522825,-0.18318 -0.773713,-0.82854 -0.773713,-1.99024 0,-2.21486 1.449904,-3.18626 4.46074,-2.98858 1.963489,0.12891 2.108828,0.22681 2.126533,1.43238 0.02437,1.65963 0.899026,1.96679 5.71345,2.00649 2.082462,0.0172 4.525678,0.3133 5.42936,0.65805 0.903682,0.34475 2.593455,0.61707 3.755046,0.60515 1.251367,-0.0128 3.371706,0.46603 5.203387,1.17516 1.700267,0.65825 3.670748,1.13557 4.378846,1.06071 1.090391,-0.11528 1.263497,-0.32309 1.130988,-1.35774 -0.132674,-1.03596 0.02277,-1.22164 1.022762,-1.22164 0.648571,0 1.923155,0.45622 2.832418,1.01381 1.281571,0.78592 1.68607,1.36865 1.799433,2.59235 0.09273,1.00091 -0.122019,1.78181 -0.586858,2.13405 -0.852994,0.64636 -1.748799,0.28476 -1.748799,-0.70593 0,-1.01663 -1.966175,-0.44057 -6.039226,1.76941 -3.174815,1.7226 -3.71189,1.86635 -7.329371,1.96175 -2.331113,0.0615 -4.965495,-0.16626 -6.539889,-0.56535 z m 9.724507,-1.40594 2.642633,-0.75778 -4.622568,-0.2955 c -3.991162,-0.25513 -9.598732,-1.32596 -12.892816,-2.46201 -0.86219,-0.29735 -0.897537,-0.25079 -0.310207,0.40856 1.205034,1.35281 3.872515,2.57095 6.978076,3.18664 4.116908,0.81619 5.113703,0.80649 8.204882,-0.0799 z m -1.249674,-4.573 c -1.375887,-0.53982 -3.771174,-0.53982 -3.405769,0 0.165384,0.24433 1.218282,0.43018 2.339773,0.41301 1.585215,-0.0242 1.822485,-0.1162 1.065996,-0.41301 z m -6.568269,-0.85098 c -0.401395,-0.20886 -1.496106,-0.50014 -2.432693,-0.64729 l -1.702884,-0.26755 1.459615,0.64076 c 1.616811,0.70977 3.978094,0.95161 2.675962,0.27408 z m 1.946153,-5.68086 c -1.127007,-0.37442 -3.405769,-2.45009 -3.405769,-3.10223 0,-0.74903 0.458013,-0.73439 2.600918,0.0831 0.96067,0.36649 2.957891,0.66635 4.438262,0.66635 3.071727,0 3.390915,0.51221 1.110339,1.78179 -1.538916,0.8567 -3.260158,1.06389 -4.74375,0.57098 z m 4.865385,-9.01623 c 0,-0.97731 0.218942,-1.77693 0.486538,-1.77693 0.267596,0 0.486539,0.79962 0.486539,1.77693 0,0.97731 -0.218943,1.77692 -0.486539,1.77692 -0.267596,0 -0.486538,-0.79961 -0.486538,-1.77692 z m 29.870828,-13.5863 c -3.225628,-1.39439 -8.489235,-1.81084 -13.328521,-1.05454 -2.006971,0.31366 -4.415336,0.58768 -5.351923,0.60893 -1.479476,0.0336 -1.721957,-0.11098 -1.848257,-1.10182 -0.22228,-1.74379 1.641483,-2.29963 8.504497,-2.53632 5.094471,-0.1757 6.410971,-0.07 9.377985,0.75282 3.589967,0.9956 6.77279,3.04544 6.15222,3.96222 -0.449435,0.66397 -0.552688,0.64538 -3.506001,-0.63129 z m -42.034289,-7.32014 c -3.993848,-1.93518 -8.302677,-2.823 -13.744711,-2.83206 -2.609063,-0.004 -4.74375,-0.1577 -4.74375,-0.3408 0,-0.90823 2.760386,-1.83789 5.989055,-2.01702 4.3384,-0.2407 9.295793,0.67468 14.335879,2.64713 3.248053,1.27113 3.758719,1.6211 3.758719,2.57595 0,1.60617 -2.239274,1.59289 -5.595192,-0.0332 z m 52.072716,23.46076 c 1.002556,-2.01661 1.277299,-5.43244 0.473436,-5.88605 -0.279055,-0.15747 -0.493827,0.25759 -0.503631,0.9733 -0.0094,0.68632 -0.310674,2.49725 -0.669496,4.02429 -0.358822,1.52705 -0.559369,2.77645 -0.44566,2.77645 0.113709,0 0.629119,-0.8496 1.145351,-1.88799 z m -50.397418,-8.8724 c 0.964538,-1.25733 0.969004,-3.04092 0.01036,-4.1475 -0.728046,-0.84041 -0.762021,-0.84117 -1.337981,-0.0298 -0.325032,0.4579 -1.067723,1.49493 -1.650436,2.30452 -1.084027,1.5061 -0.941909,1.94894 0.816203,2.54322 1.207754,0.40825 1.373819,0.35675 2.161836,-0.67047 z m -15.635171,-5.00576 c -0.158266,-0.89045 0.02978,-2.0179 0.471417,-2.82617 0.877603,-1.60622 0.694091,-1.8423 -1.432058,-1.8423 -2.103087,0 -3.570268,1.32715 -3.560498,3.22067 0.0097,1.87563 0.489891,2.51258 2.223442,2.94919 2.096606,0.52805 2.599939,0.19916 2.297697,-1.50139 z m -15.873696,-1.22568 c 0.270968,-1.52705 0.676566,-3.17625 0.901332,-3.66491 0.362549,-0.78821 0.316975,-0.82038 -0.403915,-0.28509 -0.9424978,0.69985 -1.7956867,3.20438 -1.7995936,5.28269 -0.00438,2.41614 0.7793129,1.61391 1.3021766,-1.33269 z m 22.25747,-0.14279 c 1.54888,-1.4142 0.385226,-3.02691 -2.003614,-2.77681 -1.68299,0.1762 -2.202969,1.98079 -0.834078,2.89471 1.144153,0.76387 1.906632,0.7322 2.837692,-0.1179 z"
       id="path4167"
       inkscape:connector-curvature="0" />
    <path
       style="fill:#72482c"
       d="m 34.038461,204.06017 c -6.091754,-1.54372 -5.838462,-1.52575 -5.838462,-0.41401 0,0.48865 -0.164207,0.88469 -0.364904,0.88008 -0.200697,-0.005 -3.539567,-1.01565 -7.419711,-2.24676 -3.880144,-1.23112 -7.893454,-2.40287 -8.918459,-2.60389 -2.6579301,-0.52128 -3.0692253,-1.07253 -1.5918757,-2.13356 1.2821897,-0.92086 9.0337147,-2.75725 12.6030877,-2.98574 2.327332,-0.14899 9.505749,-2.56636 11.08247,-3.7321 0.842957,-0.62323 1.0998,-1.40197 1.298444,-3.93691 0.354565,-4.52453 0.09983,-5.06495 -3.287117,-6.9737 -8.237908,-4.64258 -16.507047,-14.74853 -19.928673,-24.3554 -0.592599,-1.66383 -1.349477,-2.99856 -1.7003833,-2.99856 -1.1150634,0 -6.1773743,11.64416 -6.8543877,15.76622 -0.8468931,5.15639 -2.41618881,-0.54199 -2.38450056,-8.65853 C 0.75325636,154.727 1.072844,152.10456 2.5474398,144.78558 3.531965,139.89904 4.6773203,132.3027 5.0926781,127.90481 6.9802429,107.91899 9.1764726,98.139485 13.904609,88.666459 17.58103,81.300604 24.620322,73.59782 29.907078,71.15568 c 6.378056,-2.94625 14.137751,-4.053805 19.826592,-2.829887 7.475147,1.60823 12.389025,5.247078 13.671098,10.123784 0.278767,1.060383 0.844343,1.337512 5.299328,2.596662 7.268169,2.054266 12.704049,4.756779 16.391709,8.149338 5.493233,5.053645 9.362026,11.651343 10.976448,18.718853 1.797497,7.86895 0.683995,22.29579 -2.401855,31.11907 -1.493844,4.27131 -1.52652,4.91805 -0.279283,5.52751 2.6274,1.28386 3.275518,6.58728 1.276073,10.44188 -1.804323,3.47845 -4.031277,5.93814 -6.279012,6.93521 -1.480998,0.65696 -2.544289,1.62206 -3.758894,3.41178 -4.659233,6.86539 -16.177111,14.77643 -25.632947,17.60595 -1.643818,0.49189 -2.63949,1.06805 -2.839365,1.64303 -0.490066,1.4098 0.286829,5.29858 1.230709,6.16038 1.378772,1.25888 8.700635,3.63637 12.411357,4.03011 6.794033,0.7209 12.693287,2.51901 12.249797,3.73379 -0.09144,0.25046 -0.91457,0.57067 -1.82918,0.71156 -0.914609,0.1409 -4.706666,1.32152 -8.426792,2.62361 -6.339027,2.21872 -6.803496,2.31795 -7.394737,1.57969 -0.735861,-0.91884 -1.959592,-0.78593 -8.398228,0.91213 -5.0092,1.32108 -8.487863,1.44575 -8.246729,0.29555 0.119703,-0.57098 1.25958,-1.0286 4.292884,-1.72344 2.271449,-0.52033 5.434824,-1.26997 7.029726,-1.66587 1.594898,-0.39591 3.833437,-0.71983 4.974525,-0.71983 1.805379,0 2.171071,-0.17014 2.817009,-1.31063 1.059968,-1.87151 0.975733,-2.04023 -1.325486,-2.65489 -3.810891,-1.01789 -10.989128,-4.08889 -11.302979,-4.83565 -0.170785,-0.40636 -0.438551,-1.9907 -0.595037,-3.52076 l -0.284523,-2.78191 -4.91666,-0.005 c -2.72031,-0.003 -6.09458,-0.2915 -7.553495,-0.64601 -1.450254,-0.35241 -2.818644,-0.53814 -3.040865,-0.41274 -0.222222,0.12539 -0.405258,1.26569 -0.406751,2.53399 -0.0015,1.26829 -0.224655,3.03555 -0.495914,3.92725 -0.459195,1.50946 -0.802881,1.74354 -4.984309,3.39478 -2.470102,0.97544 -5.309439,2.00973 -6.309625,2.29841 l -1.818525,0.52488 0.7917,1.41111 c 0.981367,1.74915 1.486817,2.06282 3.331888,2.06769 0.802788,0.002 3.430096,0.49937 5.838461,1.10499 2.408366,0.60563 5.580737,1.35659 7.049714,1.66882 1.844374,0.39201 2.721122,0.80824 2.833269,1.34508 0.248582,1.18992 -3.542195,0.95967 -9.639713,-0.58551 z M 56.801385,180.9608 c 10.239401,-2.49812 22.073982,-10.78664 26.579746,-18.61551 1.790491,-3.11103 3.69002,-8.87106 3.69002,-11.18942 0,-1.19396 -0.114293,-1.26163 -2.13063,-1.26163 -1.227172,0 -3.238672,-0.46205 -4.74375,-1.08964 -5.949659,-2.48094 -13.065104,-3.13352 -19.370579,-1.77654 -3.356293,0.7223 -4.406963,0.61915 -4.406963,-0.43267 0,-0.81443 2.990533,-3.05227 4.213851,-3.15326 0.492138,-0.0406 2.125725,-0.31358 3.63019,-0.60655 5.682414,-1.10656 11.786486,-0.73343 16.177393,0.98891 2.679552,1.05106 3.386444,0.96961 3.108451,-0.35816 -0.126335,-0.60342 -0.04238,-0.99143 0.186553,-0.86224 0.228941,0.12919 0.416253,0.70508 0.416253,1.27976 0,1.17334 2.695345,3.52377 3.512253,3.0628 0.896593,-0.50594 0.142848,-14.49259 -0.990261,-18.37549 -1.856398,-6.36146 -2.983629,-8.48873 -5.91768,-11.16764 -6.202567,-5.66322 -19.838079,-9.82098 -32.364887,-9.86875 -7.094446,-0.0271 -10.549229,0.62173 -15.530327,2.91652 -3.569275,1.64437 -9.059662,6.57549 -11.432106,10.26761 -1.707609,2.65746 -4.700915,9.47108 -5.238083,11.92336 l -0.301965,1.37855 3.341575,-1.70622 c 5.663488,-2.89179 11.641123,-2.85673 17.812975,0.10446 8.165784,3.91787 11.19905,10.98989 6.037996,14.07749 -1.667202,0.9974 -2.055542,0.95568 -7.648029,-0.82167 -2.689312,-0.85469 -6.950513,-1.93837 -9.469337,-2.40819 -5.756782,-1.07377 -7.432639,-2.00993 -9.306775,-5.19892 l -1.474776,-2.50944 -0.522387,1.50402 c -1.961854,5.64841 -2.20291,13.00048 -0.574305,17.51598 5.095731,14.12852 17.993836,25.77208 30.413236,27.45506 2.571351,0.34845 8.650026,-0.18152 12.302348,-1.07258 z m -13.479104,-8.65109 c -3.663596,-0.92869 -5.525126,-2.08997 -8.045463,-5.019 -2.390155,-2.77774 -5.130665,-4.62296 -5.130665,-3.45454 0,0.86415 -0.687022,1.23426 -1.658979,0.89371 -0.522825,-0.18318 -0.773713,-0.82854 -0.773713,-1.99024 0,-2.21486 1.449904,-3.18626 4.46074,-2.98858 1.963489,0.12891 2.108828,0.22681 2.126533,1.43238 0.02437,1.65963 0.899026,1.96679 5.71345,2.00649 2.082462,0.0172 4.525678,0.3133 5.42936,0.65805 0.903682,0.34475 2.593455,0.61707 3.755046,0.60515 1.251367,-0.0128 3.371706,0.46603 5.203387,1.17516 1.700267,0.65825 3.670748,1.13557 4.378846,1.06071 1.090391,-0.11528 1.263497,-0.32309 1.130988,-1.35774 -0.132674,-1.03596 0.02277,-1.22164 1.022762,-1.22164 0.648571,0 1.923155,0.45622 2.832418,1.01381 1.281571,0.78592 1.68607,1.36865 1.799433,2.59235 0.09273,1.00091 -0.122019,1.78181 -0.586858,2.13405 -0.852994,0.64636 -1.748799,0.28476 -1.748799,-0.70593 0,-1.01663 -1.966175,-0.44057 -6.039226,1.76941 -3.174815,1.7226 -3.71189,1.86635 -7.329371,1.96175 -2.331113,0.0615 -4.965495,-0.16626 -6.539889,-0.56535 z m 9.724507,-1.40594 2.642633,-0.75778 -4.622568,-0.2955 c -3.991162,-0.25513 -9.598732,-1.32596 -12.892816,-2.46201 -0.86219,-0.29735 -0.897537,-0.25079 -0.310207,0.40856 1.205034,1.35281 3.872515,2.57095 6.978076,3.18664 4.116908,0.81619 5.113703,0.80649 8.204882,-0.0799 z m -1.249674,-4.573 c -1.375887,-0.53982 -3.771174,-0.53982 -3.405769,0 0.165384,0.24433 1.218282,0.43018 2.339773,0.41301 1.585215,-0.0242 1.822485,-0.1162 1.065996,-0.41301 z m -6.568269,-0.85098 c -0.401395,-0.20886 -1.496106,-0.50014 -2.432693,-0.64729 l -1.702884,-0.26755 1.459615,0.64076 c 1.616811,0.70977 3.978094,0.95161 2.675962,0.27408 z m 1.946153,-5.68086 c -1.127007,-0.37442 -3.405769,-2.45009 -3.405769,-3.10223 0,-0.74903 0.458013,-0.73439 2.600918,0.0831 0.96067,0.36649 2.957891,0.66635 4.438262,0.66635 3.071727,0 3.390915,0.51221 1.110339,1.78179 -1.538916,0.8567 -3.260158,1.06389 -4.74375,0.57098 z m 4.865385,-9.01623 c 0,-0.97731 0.218942,-1.77693 0.486538,-1.77693 0.267596,0 0.486539,0.79962 0.486539,1.77693 0,0.97731 -0.218943,1.77692 -0.486539,1.77692 -0.267596,0 -0.486538,-0.79961 -0.486538,-1.77692 z m 29.870828,-13.5863 c -3.225628,-1.39439 -8.489235,-1.81084 -13.328521,-1.05454 -2.006971,0.31366 -4.415336,0.58768 -5.351923,0.60893 -1.479476,0.0336 -1.721957,-0.11098 -1.848257,-1.10182 -0.22228,-1.74379 1.641483,-2.29963 8.504497,-2.53632 5.094471,-0.1757 6.410971,-0.07 9.377985,0.75282 3.589967,0.9956 6.77279,3.04544 6.15222,3.96222 -0.449435,0.66397 -0.552688,0.64538 -3.506001,-0.63129 z m -42.034289,-7.32014 c -3.993848,-1.93518 -8.302677,-2.823 -13.744711,-2.83206 -2.609063,-0.004 -4.74375,-0.1577 -4.74375,-0.3408 0,-0.90823 2.760386,-1.83789 5.989055,-2.01702 4.3384,-0.2407 9.295793,0.67468 14.335879,2.64713 3.248053,1.27113 3.758719,1.6211 3.758719,2.57595 0,1.60617 -2.239274,1.59289 -5.595192,-0.0332 z m 52.072716,23.46076 c 1.002556,-2.01661 1.277299,-5.43244 0.473436,-5.88605 -0.279055,-0.15747 -0.493827,0.25759 -0.503631,0.9733 -0.0094,0.68632 -0.310674,2.49725 -0.669496,4.02429 -0.358822,1.52705 -0.559369,2.77645 -0.44566,2.77645 0.113709,0 0.629119,-0.8496 1.145351,-1.88799 z m -50.161875,-8.61135 c 1.248477,-1.44916 1.29282,-3.29691 0.111096,-4.62937 -0.99828,-1.12563 -2.508476,-0.94371 -2.508476,0.30216 0,0.41218 -0.547355,1.40463 -1.216346,2.20546 -0.66899,0.80082 -1.216346,1.57897 -1.216346,1.72924 0,0.26313 2.817136,1.51 3.492091,1.54561 0.181274,0.01 0.783366,-0.50933 1.337981,-1.1531 z m -15.710395,-3.3705 c 0.202123,-0.29859 0.306938,-1.30871 0.232921,-2.24468 -0.07991,-1.01057 0.18593,-2.14841 0.65452,-2.80138 1.127806,-1.57157 0.519696,-2.10501 -2.093151,-1.83611 -2.627152,0.27037 -3.969735,1.49245 -3.969735,3.61343 0,1.80313 0.827057,2.83462 2.676525,3.33809 2.008679,0.54682 2.083246,0.54475 2.49892,-0.0694 z m -16.034015,-3.12199 c 0.270968,-1.52705 0.676566,-3.17625 0.901332,-3.66491 0.362549,-0.78821 0.316975,-0.82038 -0.403915,-0.28509 -0.9424978,0.69985 -1.7956867,3.20438 -1.7995936,5.28269 -0.00438,2.41614 0.7793129,1.61391 1.3021766,-1.33269 z m 22.535492,0.11106 c 1.183612,-1.08069 1.220292,-1.67967 0.167861,-2.74147 -0.914415,-0.92255 -3.09038,-1.07592 -3.962861,-0.2793 -0.928948,0.84817 -0.678915,2.46536 0.497491,3.21769 1.429114,0.91395 2.12645,0.8723 3.297509,-0.19692 z"
       id="path4165"
       inkscape:connector-curvature="0" />
    <path
       style="fill:#59321d"
       d="m 34.768268,203.62504 c -2.675961,-0.71763 -5.471645,-1.3063 -6.212634,-1.30817 -1.194695,-0.003 -1.31268,0.12236 -1.041965,1.10717 0.167904,0.61082 0.226809,1.10681 0.130903,1.1022 -0.09591,-0.005 -3.349044,-1.01565 -7.229188,-2.24676 -3.880144,-1.23112 -7.893454,-2.40287 -8.918459,-2.60389 -2.6579301,-0.52128 -3.0692253,-1.07253 -1.5918757,-2.13356 1.2821897,-0.92086 9.0337147,-2.75725 12.6030877,-2.98574 2.327332,-0.14899 9.505749,-2.56636 11.08247,-3.7321 0.842957,-0.62323 1.0998,-1.40197 1.298444,-3.93691 0.354565,-4.52453 0.09983,-5.06495 -3.287117,-6.9737 -8.237908,-4.64258 -16.507047,-14.74853 -19.928673,-24.3554 -0.592599,-1.66383 -1.349477,-2.99856 -1.7003833,-2.99856 -1.1150634,0 -6.1773743,11.64416 -6.8543877,15.76622 -0.8468931,5.15639 -2.41618881,-0.54199 -2.38450056,-8.65853 C 0.75325636,154.727 1.072844,152.10456 2.5474398,144.78558 3.531965,139.89904 4.6773203,132.3027 5.0926781,127.90481 6.9802429,107.91899 9.1764726,98.139485 13.904609,88.666459 17.58103,81.300604 24.620322,73.59782 29.907078,71.15568 c 6.378056,-2.94625 14.137751,-4.053805 19.826592,-2.829887 7.475147,1.60823 12.389025,5.247078 13.671098,10.123784 0.278767,1.060383 0.844343,1.337512 5.299328,2.596662 7.268169,2.054266 12.704049,4.756779 16.391709,8.149338 5.493233,5.053645 9.362026,11.651343 10.976448,18.718853 1.797497,7.86895 0.683995,22.29579 -2.401855,31.11907 -1.493844,4.27131 -1.52652,4.91805 -0.279283,5.52751 2.6274,1.28386 3.275518,6.58728 1.276073,10.44188 -1.804323,3.47845 -4.031277,5.93814 -6.279012,6.93521 -1.480998,0.65696 -2.544289,1.62206 -3.758894,3.41178 -4.659233,6.86539 -16.177111,14.77643 -25.632947,17.60595 -1.643818,0.49189 -2.63949,1.06805 -2.839365,1.64303 -0.490066,1.4098 0.286829,5.29858 1.230709,6.16038 1.378772,1.25888 8.700635,3.63637 12.411357,4.03011 6.796139,0.72112 12.688757,2.51763 12.252235,3.73539 -0.0901,0.25135 -0.762148,0.52141 -1.493444,0.60013 -0.731297,0.0787 -4.412924,1.22235 -8.181393,2.54139 -3.768468,1.31904 -7.029916,2.29772 -7.247656,2.17485 -0.217746,-0.12287 -0.272564,-0.51686 -0.121825,-0.87552 0.429784,-1.0226 -2.883586,-0.82578 -7.639636,0.45381 -4.607091,1.23951 -9.758866,1.94411 -8.975972,1.22763 0.267596,-0.2449 2.019134,-0.77353 3.892307,-1.17476 1.873173,-0.40122 4.938365,-1.11442 6.811538,-1.58489 1.873173,-0.47046 4.230019,-0.86691 5.237441,-0.88099 1.528606,-0.0214 1.992336,-0.26449 2.802709,-1.46936 0.534073,-0.79407 0.914002,-1.71543 0.84429,-2.04748 -0.06971,-0.33205 -2.133772,-1.25745 -4.586802,-2.05645 -8.41946,-2.74238 -8.842612,-3.10849 -9.633227,-8.33454 l -0.319228,-2.11009 -5.244782,0 c -3.251512,0 -6.152488,-0.25142 -7.633171,-0.66154 -1.31361,-0.36384 -2.552589,-0.6637 -2.753287,-0.66635 -0.200697,-0.003 -0.364903,0.90619 -0.364903,2.01963 0,3.05741 -0.947865,5.93615 -2.20149,6.68614 -0.603254,0.36089 -3.036754,1.35849 -5.407767,2.21689 -2.371014,0.8584 -4.818735,1.75146 -5.439378,1.9846 l -1.128439,0.42388 1.129854,1.87009 c 1.093929,1.81064 1.239063,1.8868 4.564626,2.39519 1.889127,0.2888 4.844215,0.92047 6.566858,1.4037 1.722643,0.48324 4.062586,1.02017 5.19987,1.1932 1.137284,0.17302 2.067788,0.49692 2.067788,0.71977 0,0.73904 -3.10122,0.37258 -8.027884,-0.94863 z M 55.93269,181.63665 c 4.111085,-0.87526 12.04208,-4.45603 16.090625,-7.26476 4.803696,-3.33262 9.689291,-8.27132 11.777684,-11.90571 1.931295,-3.36098 3.75669,-8.98827 3.75669,-11.58103 0,-1.51237 -0.02379,-1.52957 -1.824519,-1.3197 -1.313921,0.15314 -2.777633,-0.15228 -5.230288,-1.09134 -6.814784,-2.60922 -12.791164,-3.19389 -19.461358,-1.90389 -4.164428,0.80539 -4.135757,0.80519 -4.135757,0.0285 0,-0.92496 2.748699,-2.3112 6.081731,-3.06719 8.004472,-1.81555 12.834096,-1.34946 19.902565,1.92072 2.650929,1.22643 4.949823,2.11051 5.108654,1.96463 0.15883,-0.14589 0.270019,-3.59628 0.247088,-7.66752 -0.03138,-5.56872 -0.258001,-8.17251 -0.914964,-10.51188 -2.706857,-9.63875 -5.524284,-13.09151 -13.598935,-16.6655 -2.787164,-1.23365 -7.322403,-2.75206 -10.501139,-3.51581 -12.29253,-2.95351 -21.437959,-2.76363 -29.435576,0.61118 -8.271864,3.49052 -13.25011,9.57671 -17.476699,21.36626 -5.020936,14.00529 -4.973396,20.59415 0.216227,29.96638 4.556501,8.22883 11.482784,15.1446 18.476818,18.44878 4.386383,2.07224 7.919411,2.85549 12.893269,2.85836 2.675962,0.001 6.288509,-0.30019 8.027884,-0.6705 z m -8.364286,-12.6461 c -4.243915,-0.6133 -11.737867,-3.03224 -14.587936,-4.70876 -1.407025,-0.82768 -2.704288,-1.50486 -2.882799,-1.50486 -0.178511,0 -0.46317,0.44978 -0.632573,0.99952 -0.302047,0.98017 -0.32203,0.98277 -1.032103,0.13436 -0.814519,-0.9732 -0.532925,-2.4029 0.638932,-3.24398 1.141103,-0.819 4.966536,-0.73346 4.966536,0.11106 0,0.36649 -0.218943,0.66635 -0.486539,0.66635 -1.480721,0 -0.02613,1.10403 3.284135,2.49265 6.277007,2.63314 10.354384,3.37541 17.612672,3.20633 5.621095,-0.13096 8.172726,-0.57748 6.47098,-1.1324 -0.8703,-0.28379 -0.752898,-1.45697 0.145797,-1.45697 1.21943,0 3.553409,1.26918 4.123943,2.24253 0.585685,0.9992 0.21252,2.64401 -0.599853,2.64401 -0.28696,0 -0.786086,-0.33007 -1.109162,-0.73348 -0.505319,-0.63097 -0.8188,-0.65744 -2.243059,-0.18939 -2.153584,0.70774 -10.133851,0.98391 -13.668971,0.47303 z m 0.0019,-10.51516 c 0.351217,-0.12832 0.770857,-0.11254 0.932533,0.035 0.161672,0.14762 -0.125692,0.25261 -0.638581,0.23332 -0.566793,-0.0213 -0.682078,-0.12658 -0.293952,-0.26838 z M 36.472578,145.60807 c -2.595843,-0.91534 -8.248052,-2.2863 -14.438408,-3.50209 -2.440291,-0.47927 -5.997632,-4.53447 -5.997632,-6.83697 0,-1.37728 6.668807,-4.16285 10.519691,-4.39409 5.04627,-0.30301 10.658919,1.58748 14.626416,4.92658 4.530607,3.81302 5.267158,7.72139 1.921467,10.19584 -1.388605,1.027 -2.860034,0.94063 -6.631573,-0.38927 z m 5.315224,-0.8824 c 1.198504,-1.39115 1.296109,-3.14331 0.250995,-4.50567 -1.133508,-1.47758 -2.352194,-1.24157 -3.080153,0.5965 -0.34499,0.8711 -0.936329,1.6921 -1.314082,1.82446 -1.277173,0.44747 -0.764153,1.93471 0.894418,2.59291 2.103247,0.83466 2.090164,0.83671 3.248822,-0.5082 z m -15.816981,-3.09723 c 0.547195,-0.19172 0.771757,-0.86571 0.777051,-2.33221 0.0085,-2.35831 0.67081,-3.80625 1.082888,-2.36748 0.357533,1.24833 2.528896,2.44295 3.780881,2.08014 0.564608,-0.16362 1.266892,-0.77909 1.560635,-1.36772 0.437554,-0.87682 0.366466,-1.23935 -0.393318,-2.0059 -0.749784,-0.75646 -1.325111,-0.89472 -3.004112,-0.72193 -1.142197,0.11755 -2.211263,0.015 -2.375709,-0.22798 -0.166532,-0.24602 -1.286203,-0.3401 -2.52744,-0.21236 -2.627152,0.27037 -3.969736,1.49245 -3.969736,3.61343 0,1.80313 0.827057,2.83462 2.676526,3.33809 0.802477,0.21846 1.495882,0.41438 1.540892,0.43538 0.045,0.021 0.428163,-0.0832 0.851442,-0.23146 z m 55.261868,-5.38288 c -2.666547,-1.08596 -10.952909,-1.29173 -15.08564,-0.37461 -3.465345,0.76901 -4.375897,0.68061 -4.375897,-0.4248 0,-1.37138 2.067039,-1.76634 9.24423,-1.76634 6.371474,0 7.300738,0.10153 9.593813,1.04821 2.630232,1.08586 4.269866,2.31652 2.994124,2.24729 -0.367259,-0.0199 -1.434043,-0.34832 -2.37063,-0.72975 z M 39.633653,129.22664 C 35.803534,127.54547 30.110203,126.35 25.933781,126.35 c -2.235381,0 -2.672089,-0.11098 -2.184937,-0.55528 0.407291,-0.37147 2.170915,-0.54754 5.327596,-0.53187 4.01276,0.0199 5.410283,0.23977 9.340866,1.4694 5.167671,1.61665 6.811539,2.43814 6.811539,3.40396 0,1.03185 -1.861672,0.72921 -5.595192,-0.90957 z m 52.594601,24.88779 c 1.552427,-2.9767 1.559652,-7.32981 0.01216,-7.32981 -0.483706,0 -1.343216,3.36017 -2.556691,9.99519 -0.237173,1.2968 -0.221789,1.30877 0.571196,0.44423 0.448214,-0.48865 1.33621,-1.88798 1.973322,-3.10961 z m -82.047741,-13.6601 c 0.323363,-2.0157 0.809833,-4.32798 1.081044,-5.13842 0.552927,-1.65224 0.398422,-2.0016 -0.712997,-1.61219 -1.1508486,0.40322 -2.2972986,2.98098 -2.2912801,5.15188 0.00701,2.52444 0.5127725,5.26364 0.9718994,5.26364 0.19987,0 0.6279703,-1.64921 0.9513337,-3.66491 z"
       id="path4163"
       inkscape:connector-curvature="0" />
    <path
       style="fill:#252828"
       d="m 20.172115,202.2008 c -3.746346,-1.18625 -7.650185,-2.32195 -8.67519,-2.52377 -2.6583582,-0.52342 -3.0689772,-1.07414 -1.5918757,-2.135 1.2821897,-0.92086 9.0337147,-2.75725 12.6030877,-2.98574 2.327332,-0.14899 9.505749,-2.56636 11.08247,-3.7321 0.842957,-0.62323 1.0998,-1.40197 1.298444,-3.93691 0.354565,-4.52453 0.09983,-5.06495 -3.287117,-6.9737 -8.201554,-4.62209 -16.522149,-14.79093 -19.928673,-24.3554 -0.592599,-1.66383 -1.349477,-2.99856 -1.7003833,-2.99856 -1.1150634,0 -6.1773743,11.64416 -6.8543877,15.76622 -0.8468931,5.15639 -2.41618881,-0.54199 -2.38450056,-8.65853 0.0193156,-4.94387 0.33818796,-7.55748 1.81571766,-14.88173 1.0561485,-5.23541 2.2025741,-13.0812 2.7911738,-19.10192 2.5678136,-26.265937 7.1942011,-39.222869 17.6062211,-49.309027 4.104034,-3.975591 7.195426,-5.741428 12.794243,-7.308213 12.407961,-3.47227 25.446433,0.950251 27.663423,9.383157 0.278528,1.059464 0.84609,1.338553 5.279677,2.596187 11.836239,3.357479 18.870719,8.530053 23.866423,17.549404 3.209105,5.793782 4.336133,11.018002 4.305262,19.956572 -0.02584,7.47677 -1.137868,14.62636 -3.185732,20.48176 -1.493844,4.27131 -1.52652,4.91805 -0.279283,5.52751 2.6274,1.28386 3.275518,6.58728 1.276073,10.44188 -1.809431,3.48829 -4.06552,5.98956 -6.183319,6.85528 -1.459392,0.59657 -2.596705,1.67592 -4.641747,4.40517 -1.489801,1.98824 -3.939814,4.64229 -5.444473,5.89788 -5.546129,4.62809 -13.403662,8.9999 -19.401314,10.79461 -1.643818,0.49189 -2.63949,1.06805 -2.839365,1.64303 -0.490066,1.4098 0.286829,5.29858 1.230709,6.16038 1.378772,1.25888 8.700635,3.63637 12.411357,4.03011 6.864693,0.7284 12.163461,2.37881 12.163461,3.78856 0,0.21382 -0.766298,0.50719 -1.702884,0.65193 -0.936587,0.14475 -4.377693,1.19764 -7.646906,2.33975 -3.269207,1.14211 -6.290382,2.07657 -6.713714,2.07657 -0.601367,0 -0.392077,-0.61653 0.957001,-2.81913 0.949684,-1.55052 1.726696,-3.1247 1.726696,-3.49816 0,-0.45381 -1.412027,-1.13033 -4.257211,-2.0397 -6.528777,-2.08671 -8.88752,-3.15437 -9.330553,-4.22337 -0.2208,-0.53277 -0.556517,-2.19452 -0.746038,-3.69276 l -0.344581,-2.72408 -5.432445,-0.003 c -3.634875,-0.002 -6.237404,-0.23817 -7.865133,-0.7139 -1.33798,-0.39104 -2.677576,-0.71316 -2.97688,-0.7158 -0.331235,-0.003 -0.633016,1.25894 -0.771178,3.22459 -0.358929,5.10654 -0.704119,5.48259 -7.199056,7.84278 -3.077356,1.11827 -5.868068,2.19436 -6.20158,2.39131 -0.69466,0.41021 4.77e-4,1.87922 2.412632,5.09849 0.784378,1.04684 1.355676,2.05651 1.269564,2.24372 -0.08612,0.1872 -3.22177,-0.63019 -6.968116,-1.81645 z m 36.047653,-20.32901 c 11.409506,-2.65493 23.10519,-10.77381 28.131317,-19.52813 2.124518,-3.70041 3.053938,-7.03454 4.000265,-14.35024 1.750575,-13.53303 -1.081152,-25.9063 -7.184192,-31.39143 -6.068283,-5.45391 -21.014214,-9.91032 -33.262352,-9.9178 -12.31729,-0.008 -21.295909,4.5081 -27.164706,13.66197 -2.536958,3.95703 -6.821138,15.23883 -7.887275,20.77008 -0.388997,2.01814 -0.707563,5.19308 -0.707928,7.05543 -0.0019,10.63416 11.142485,26.21036 22.610823,31.60198 6.719884,3.15922 13.891403,3.86025 21.464048,2.09814 z m -7.585154,-13.31545 c -5.437568,-0.61278 -12.655113,-2.98235 -17.182548,-5.64117 -1.3306,-0.78143 -1.390133,-0.77976 -2.067788,0.0577 -0.671983,0.83048 -0.69774,0.82146 -0.69774,-0.24432 0,-1.57674 0.87825,-2.17693 3.138173,-2.14464 1.710007,0.0244 1.821638,0.0827 0.844514,0.44048 -1.522978,0.55769 -1.040482,1.08167 2.499391,2.71432 7.315685,3.37412 14.727217,4.7264 21.938792,4.00287 4.73218,-0.47477 5.899196,-1.02222 4.394323,-2.06138 -1.246244,-0.86057 -0.106099,-0.88225 1.694239,-0.0322 1.51998,0.71767 2.100756,1.65775 1.664871,2.69488 -0.250538,0.59611 -0.358292,0.58856 -0.878961,-0.0616 -0.512733,-0.64023 -0.918375,-0.67494 -2.983322,-0.25531 -3.501262,0.71152 -8.756087,0.93693 -12.363944,0.53035 z m 31.647895,-20.5193 c -5.932709,-2.52559 -11.887895,-3.13233 -18.83346,-1.91884 -2.097409,0.36644 -3.902141,0.6663 -4.010517,0.66635 -0.108372,4e-5 0.204239,-0.40478 0.694689,-0.8996 2.565522,-2.58836 14.519562,-3.79213 20.180238,-2.03214 2.851937,0.88671 9.24423,4.13936 9.24423,4.70383 0,0.33175 -2.511545,0.93031 -3.588221,0.85516 -0.301046,-0.021 -1.960176,-0.63965 -3.686959,-1.37476 z m -43.568087,-2.81991 c -1.605577,-0.56127 -4.880754,-1.47041 -7.278168,-2.02032 -3.154934,-0.72366 -4.095661,-1.08888 -3.405769,-1.32222 0.524241,-0.17732 1.565195,-0.21777 2.313228,-0.0899 l 1.36006,0.2325 -1.055472,-1.63333 c -1.248093,-1.93142 -0.99865,-2.35556 0.951571,-1.618 1.704111,0.64449 3.222169,0.0898 3.726768,-1.36184 0.59348,-1.70729 -1.003831,-2.50537 -5.702109,-2.849 -4.097753,-0.29971 -4.261979,-0.27476 -5.473557,0.83146 -2.139772,1.95371 -1.341596,5.73178 1.309557,6.1986 0.981445,0.17281 0.963896,0.19805 -0.175602,0.2525 -0.696314,0.0333 -2.009968,-0.39346 -2.91923,-0.9483 -1.926191,-1.17537 -4.160454,-4.70192 -3.689246,-5.82309 0.175918,-0.41856 1.800708,-1.4015 3.610641,-2.18429 2.944598,-1.27352 3.751449,-1.42325 7.669636,-1.42325 3.906962,0 4.729066,0.15149 7.628733,1.40578 7.674565,3.31972 11.373298,9.14973 7.792239,12.28226 -1.629733,1.42561 -2.752669,1.43748 -6.66328,0.0704 z m 5.073341,-0.49146 c 1.761196,-2.0443 1.153373,-4.49803 -1.414562,-5.71049 -1.967153,-0.9288 -2.17742,-0.86876 -2.706721,0.77281 -0.314522,0.97544 -0.975008,1.65989 -2.036241,2.11009 -1.838697,0.78003 -1.976801,1.16125 -0.56853,1.56935 0.562789,0.16309 1.797526,0.77627 2.743858,1.36263 2.18302,1.35261 2.739538,1.33803 3.982196,-0.10439 z m 20.469927,-9.239 c 0,-0.8126 0.980322,-1.08476 5.617534,-1.55958 3.366656,-0.34473 9.714032,0.054 10.368217,0.65129 0.127707,0.11661 -1.958921,0.21201 -4.63695,0.21201 -2.918827,0 -5.825811,0.26498 -7.257533,0.66154 -3.007975,0.83315 -4.091268,0.84235 -4.091268,0.0347 z m -22.137499,-6.50184 c -1.337981,-0.69733 -4.074759,-1.60333 -6.08173,-2.01333 -6.300493,-1.28715 -6.879124,-1.52514 -3.138519,-1.29088 4.609548,0.28867 13.842364,3.09503 13.842364,4.20744 0,0.81415 -2.122889,0.39931 -4.622115,-0.90323 z m 50.550765,28.78187 c 1.985486,-2.37676 3.189547,-5.25899 3.201049,-7.66256 0.01085,-2.27189 -1.060635,-4.4002 -2.061877,-4.09547 -0.400144,0.12178 -3.207456,11.18872 -3.267534,12.88124 -0.02744,0.77261 0.995681,0.23268 2.128362,-1.12321 z M 11.067399,139.45481 c 0.556396,-3.17625 0.830862,-5.94345 0.609925,-6.14932 -0.678337,-0.63211 -2.2806684,0.47949 -3.1769112,2.20394 -0.6566906,1.26354 -0.8019564,2.41008 -0.6351418,5.01296 0.2139455,3.33829 1.1036005,5.82529 1.8201889,5.08829 0.2036699,-0.20948 0.8255441,-2.97962 1.3819391,-6.15587 z"
       id="path4161"
       inkscape:connector-curvature="0" />
    <path
       style="fill:#090908"
       d="m 25.124706,202.42325 c -0.487229,-0.6712 -1.476425,-2.21988 -2.198219,-3.44151 -1.671537,-2.82908 -1.198675,-2.81644 -12.72841,-0.34014 -1.0562995,0.22686 -1.1341991,0.17043 -0.5920396,-0.42892 0.3433648,-0.37959 1.2191336,-0.89405 1.9461536,-1.14325 2.157934,-0.73967 10.14005,-2.30789 11.74696,-2.30789 2.299828,0 10.186076,-3.04793 11.068759,-4.27794 0.831767,-1.15904 1.432253,-6.11264 0.952536,-7.85776 -0.206619,-0.75166 -1.618714,-1.90503 -4.40419,-3.59725 -8.236571,-5.00387 -16.190851,-15.04858 -19.034304,-24.03663 -0.831499,-2.62833 -1.484827,-3.48556 -2.3041338,-3.02323 -1.1374101,0.64184 -6.677818,13.66255 -6.677818,15.6938 0,1.80681 -0.9192511,1.2195 -1.4185807,-0.90633 -0.74022929,-3.15143 -0.62696314,-11.08785 0.2184558,-15.30716 2.298033,-11.46898 3.156423,-16.8571 3.8570286,-24.21057 2.2924865,-24.06171 5.4324941,-34.958998 13.1054091,-45.481892 6.409463,-8.790153 15.453327,-13.600805 25.56906,-13.600805 8.657105,0 16.876554,4.214865 18.491852,9.482467 0.726587,2.369449 0.509654,2.241103 6.832542,4.042403 7.430459,2.116833 10.9773,3.987862 15.56923,8.213088 9.027336,8.306418 12.619459,19.041619 11.264552,33.664529 -0.576027,6.21684 -2.262404,14.10559 -3.675409,17.19332 -1.081239,2.36274 -0.985809,3.003 0.641978,4.30715 1.88829,1.51286 2.648798,4.13494 1.984405,6.84179 -1.023448,4.16973 -4.315396,8.61837 -7.253237,9.80184 -1.476508,0.59479 -2.484873,1.52294 -4.030985,3.71033 -4.900664,6.93333 -14.918398,13.83248 -24.737984,17.03692 l -3.142357,1.02545 -0.144999,3.02327 c -0.101394,2.11412 0.07243,3.32626 0.578028,4.0308 1.085428,1.51253 8.876256,4.20144 13.635896,4.70628 4.803765,0.50952 8.67122,1.4235 10.400144,2.45782 1.766567,1.05685 0.650779,1.29606 -2.207766,0.47332 -3.793949,-1.09197 -7.340911,-1.72621 -7.897438,-1.41216 -0.286961,0.16193 -1.316184,1.72884 -2.287164,3.48203 -0.970975,1.75319 -1.851356,2.96016 -1.956395,2.68215 -0.105044,-0.27801 0.356929,-1.24267 1.026606,-2.14369 2.479725,-3.33633 2.204155,-4.15442 -1.799025,-5.34076 -4.910049,-1.4551 -9.614875,-3.43683 -10.092048,-4.25091 -0.265329,-0.45266 -0.621485,-2.03786 -0.791457,-3.52267 -0.169977,-1.4848 -0.55082,-2.83966 -0.846329,-3.01079 -0.295504,-0.17114 -2.507765,-0.25463 -4.91613,-0.18555 -2.989555,0.0857 -5.30504,-0.11092 -7.298077,-0.6199 -5.047096,-1.28891 -4.822807,-1.42407 -5.162022,3.11086 -0.249973,3.34185 -0.462649,4.08846 -1.3519,4.74591 -1.058119,0.78231 -9.547145,3.95277 -10.576986,3.95027 -0.990986,-0.002 -1.758433,1.28726 -1.444854,2.42802 0.16755,0.60951 0.921353,1.76155 1.675128,2.5601 1.427144,1.5119 2.243847,3.00762 1.64104,3.00542 -0.192299,-8.9e-4 -0.748276,-0.55044 -1.235506,-1.22163 z m 32.510869,-20.55236 c 12.288083,-3.50442 24.48803,-12.98981 28.412891,-22.09086 2.142482,-4.96803 2.726421,-9.15746 2.709168,-19.43676 l -0.0164,-9.77307 -1.621356,-4.44231 c -2.057021,-5.63599 -2.580249,-6.54519 -5.287315,-9.1876 -5.681679,-5.54599 -19.108257,-9.96245 -31.738338,-10.43983 -7.500963,-0.28351 -11.744099,0.43877 -17.319182,2.94814 -4.804621,2.16257 -9.787582,6.69226 -12.812465,11.64698 -3.78541,6.20045 -8.296969,20.89287 -8.302934,27.03946 -0.0077,7.90807 7.917294,21.19507 16.630959,27.88345 3.441943,2.64195 9.703187,5.66495 13.617593,6.57473 3.698286,0.85955 11.424925,0.50468 15.727375,-0.72233 z m 5.716827,-14.50163 c -0.334496,-0.12323 -0.608173,-0.51429 -0.608173,-0.86902 0,-0.5073 0.207688,-0.54347 0.973076,-0.16947 1.554038,0.75938 1.247256,1.63245 -0.364903,1.03849 z m -33.936057,-5.92502 c 0.165384,-0.24433 0.616192,-0.44423 1.001793,-0.44423 0.385601,0 0.701092,0.1999 0.701092,0.44423 0,0.24432 -0.450807,0.44423 -1.001793,0.44423 -0.550985,0 -0.866476,-0.19991 -0.701092,-0.44423 z m 52.302883,-13.11246 c -0.668991,-0.35338 -2.967885,-1.16326 -5.108654,-1.79973 -4.348048,-1.29271 -11.109876,-1.5798 -15.512154,-0.65859 -2.963413,0.62011 -3.490008,0.26614 -1.011003,-0.67958 5.433885,-2.07299 13.354571,-2.43562 18.469311,-0.84555 3.294177,1.02409 8.583229,3.75217 8.244545,4.25252 -0.422496,0.62417 -3.721727,0.44949 -5.082045,-0.26907 z m -38.979018,-4.4581 c 0.705218,-1.7906 0.709198,-2.10834 0.04004,-3.19686 -0.650467,-1.05811 -3.953329,-3.19336 -4.971119,-3.21374 -0.200697,-0.004 -0.364903,0.47611 -0.364903,1.06694 0,1.67515 -0.490927,2.45885 -1.980951,3.16238 -2.163048,1.02129 -4.051664,0.81152 -5.752208,-0.63889 -1.805539,-1.53997 -1.99977,-2.47143 -0.41636,-1.99671 2.642448,0.79222 4.257211,-0.0926 4.257211,-2.33276 0,-1.84461 -0.735315,-2.16723 -5.857232,-2.56982 -4.097218,-0.32206 -5.577127,0.12868 -6.764563,2.06028 -0.587179,0.95516 -0.627304,1.5439 -0.203932,2.99213 0.289889,0.99164 0.36123,1.80299 0.158533,1.80299 -0.637837,0 -3.16322,-2.87309 -3.843566,-4.37277 -0.795159,-1.75275 -0.415543,-2.08423 4.4367,-3.8741 4.455827,-1.64363 9.418188,-1.44049 14.144855,0.57905 6.180425,2.64068 10.029839,7.25429 8.629027,10.34207 -0.338786,0.74678 -0.993662,1.54234 -1.45528,1.76791 -0.78989,0.38597 -0.793204,0.29307 -0.05625,-1.5781 z m 48.275444,13.72533 c 3.090789,-4.10168 4.038313,-7.87259 2.611271,-10.39222 -0.900894,-1.59064 -2.545564,-1.76946 -2.861381,-0.31111 -0.119046,0.54973 -0.669243,3.19846 -1.222656,5.88606 -0.553414,2.68759 -1.142543,5.33632 -1.309178,5.88605 -0.539459,1.77969 1.114241,1.14436 2.781944,-1.06878 z m -79.86656,-17.66772 c 0.602919,-3.52501 0.956184,-6.61598 0.78503,-6.86883 -0.502706,-0.74266 -2.4343953,0.29909 -3.4801561,1.87684 -0.7103169,1.07166 -0.92327,2.19797 -0.8957562,4.73763 0.035128,3.24028 1.0912717,6.66346 2.0559022,6.66346 0.2413182,0 0.9320621,-2.8841 1.5349801,-6.4091 z m 0.0098,-15.35821 c 1.890927,-6.54985 2.245292,-8.67031 1.517576,-9.08096 -0.608756,-0.34351 -0.648915,-5.72784 -0.07309,-9.79885 0.207358,-1.46596 0.311311,-2.73684 0.231008,-2.82419 -0.0803,-0.0873 -0.484115,0.91218 -0.897366,2.22115 -1.548278,4.90416 -3.969473,26.53382 -2.8521958,25.47997 0.259033,-0.24433 1.1923648,-2.94303 2.0740698,-5.99712 z m 82.383564,0.40807 c 2.017339,-6.5657 1.566999,-15.06142 -1.16088,-21.90007 C 87.117401,89.884113 75.190738,82.327277 57.878844,81.219872 48.139323,80.596855 40.92171,82.491611 33.525547,87.613059 c -5.396689,3.736913 -9.870975,8.816106 -8.813381,10.004912 0.30357,0.34124 0.154651,1.605552 -0.427925,3.632999 -1.010307,3.51601 -1.228539,7.3298 -0.419426,7.3298 0.291612,0 1.769472,-1.00858 3.284135,-2.2413 3.207631,-2.61054 6.543606,-4.15715 11.14265,-5.16591 1.808512,-0.39668 3.57975,-0.79141 3.936081,-0.87717 0.489078,-0.11772 0.384516,-0.54501 -0.426597,-1.743295 -0.745221,-1.100947 -0.91911,-1.729209 -0.567469,-2.050272 0.351641,-0.321063 0.855081,0.02754 1.642943,1.137599 1.09529,1.543231 2.46909,2.072888 3.070821,1.183929 0.159181,-0.235167 -0.240851,-1.384614 -0.888959,-2.554327 -1.457153,-2.629882 -3.328721,-8.070758 -2.962377,-8.611974 0.598588,-0.884317 1.0805,-0.271967 1.869942,2.376089 1.243685,4.171713 3.648285,7.991152 5.274476,8.377917 1.64991,0.392411 2.017407,-0.09244 1.602103,-2.113695 -0.382259,-1.860416 0.105516,-4.264451 0.821058,-4.046676 0.279225,0.08498 0.561631,1.415351 0.627576,2.956378 0.08307,1.941338 0.40769,3.153821 1.056942,3.947804 0.923683,1.129593 6.181091,4.078533 7.28964,4.088843 1.05663,0.01 1.234465,-2.71484 0.626584,-9.599873 -0.332768,-3.769022 -0.460694,-6.984556 -0.284285,-7.145629 0.610728,-0.557617 1.223289,0.554275 2.498112,4.53445 0.997073,3.113 1.281061,4.962648 1.282832,8.355252 0.0015,3.13705 0.162372,4.30958 0.573989,4.18723 1.029773,-0.30611 2.763572,-5.104922 3.08026,-8.525521 0.220451,-2.38117 0.500706,-3.350615 0.96862,-3.350615 0.899036,0 0.854843,2.723015 -0.113675,7.004187 l -0.772087,3.412879 1.38026,1.00849 c 1.878637,1.37263 2.816786,1.27247 4.259679,-0.45476 1.752501,-2.09785 2.657229,-4.30498 2.981332,-7.273117 0.393361,-3.6024 0.65148,-4.586141 1.203326,-4.586141 0.813497,0 0.525316,5.110671 -0.449425,7.97018 -0.509683,1.495218 -1.494923,3.398778 -2.189423,4.230128 -0.6945,0.83136 -1.262728,1.69445 -1.262728,1.91797 0,0.22352 0.928238,0.78659 2.062743,1.25128 1.134511,0.46468 3.141598,1.52086 4.460195,2.34707 2.284955,1.43172 2.428338,1.46364 3.055861,0.68008 1.806697,-2.25596 1.939094,-6.84801 0.339248,-11.766807 -0.407008,-1.251376 -0.630218,-2.375476 -0.496016,-2.498008 1.112212,-1.015503 2.89106,4.152643 2.945737,8.558355 0.03031,2.44263 -0.222284,3.64997 -1.138276,5.44058 l -1.177238,2.30129 1.581338,1.79666 c 0.869731,0.98815 2.180655,3.00212 2.913163,4.47548 1.142422,2.29787 1.420264,2.58153 1.953734,1.99463 0.342051,-0.37631 0.895367,-1.5298 1.229595,-2.56332 0.334223,-1.03352 0.893168,-1.96601 1.242098,-2.07221 1.008327,-0.30688 0.168099,3.36522 -1.289755,5.6367 -1.117598,1.74131 -1.208581,2.22314 -0.906357,4.79984 0.422617,3.60321 1.168918,3.4981 2.345207,-0.33029 z M 21.161924,112.91202 c 0.772068,-1.16556 0.956821,-2.25692 0.958826,-5.66394 0.0015,-2.3211 0.181722,-5.01981 0.400801,-5.99711 l 0.398319,-1.776927 -0.986087,1.341847 c -2.346458,3.19301 -3.970416,13.53988 -2.125107,13.53988 0.2183,0 0.827261,-0.64968 1.353248,-1.44375 z m -5.824337,-3.99807 c 3.330759,-9.198081 7.330927,-15.273204 14.473151,-21.980609 6.862858,-6.445049 10.800794,-8.11603 19.126736,-8.11603 2.727233,0 4.634473,-0.191133 4.832937,-0.48433 0.540438,-0.798406 -3.112926,-3.805211 -6.121096,-5.037807 -1.545995,-0.633471 -3.866088,-1.331754 -5.15576,-1.55174 -1.289673,-0.219986 -2.424256,-0.617445 -2.521291,-0.883241 -0.283418,-0.776322 -2.273662,-0.563052 -5.684467,0.609134 -7.133564,2.451583 -12.905817,7.86924 -17.766234,16.674841 -1.617973,2.931274 -3.539649,7.578372 -3.24505,7.84735 0.08895,0.08121 1.348431,-1.493131 2.798856,-3.498549 2.430512,-3.360534 3.853477,-4.658546 3.853477,-3.515096 0,0.253838 -0.567873,1.22004 -1.261935,2.147114 -1.403834,1.875125 -3.73428,5.905786 -3.41461,5.905786 0.112882,0 0.782627,-0.899567 1.488322,-1.999038 0.705699,-1.099471 1.456311,-1.999039 1.668028,-1.999039 1.025526,0 0.871756,0.788568 -0.640012,3.282102 -2.219058,3.660164 -3.616566,8.046812 -3.994767,12.539222 -0.172468,2.04865 -0.189789,3.72483 -0.03849,3.72483 0.151299,0 0.872296,-1.64921 1.602206,-3.6649 z M 61.284613,78.35102 c 0,-2.093153 -4.206095,-5.735876 -8.232546,-7.129869 -3.591379,-1.243366 -9.129709,-2.050191 -9.809934,-1.429115 -0.35328,0.322559 0.280027,0.696345 2.077222,1.226004 3.795925,1.118713 6.179345,2.521894 9.024354,5.31287 2.357065,2.312298 2.688811,2.486401 4.737722,2.486401 1.213918,0 2.203182,-0.209372 2.203182,-0.466291 z"
       id="path4159"
       inkscape:connector-curvature="0" />
  </g>
</svg>
